{
	"asset":{
		"generator":"Khronos glTF Blender I/O v4.0.44",
		"version":"2.0"
	},
	"extensionsUsed":[
		"KHR_materials_specular"
	],
	"scene":0,
	"scenes":[
		{
			"name":"Scene",
			"nodes":[
				6
			]
		}
	],
	"nodes":[
		{
			"mesh":0,
			"name":"body"
		},
		{
			"mesh":1,
			"name":"screen 1"
		},
		{
			"mesh":2,
			"name":"screen 2"
		},
		{
			"mesh":3,
			"name":"screen 3"
		},
		{
			"mesh":4,
			"name":"screen 4"
		},
		{
			"mesh":5,
			"name":"screen 5"
		},
		{
			"children":[
				0,
				1,
				2,
				3,
				4,
				5
			],
			"name":"console",
			"rotation":[
				-0.7071068286895752,
				0,
				0,
				0.7071068286895752
			],
			"translation":[
				0,
				30,
				-1.25
			]
		}
	],
	"materials":[
		{
			"doubleSided":true,
			"extensions":{
				"KHR_materials_specular":{
					"specularTexture":{
						"index":0
					}
				}
			},
			"name":"MaterialFBXASC032FBXASC0352142146907",
			"pbrMetallicRoughness":{
				"baseColorTexture":{
					"index":1
				},
				"metallicRoughnessTexture":{
					"index":2
				}
			}
		},
		{
			"doubleSided":true,
			"emissiveFactor":[
				1,
				1,
				1
			],
			"emissiveTexture":{
				"index":3
			},
			"name":"MaterialFBXASC032FBXASC03511186",
			"pbrMetallicRoughness":{
				"baseColorFactor":[
					0,
					0,
					0,
					1
				],
				"metallicFactor":0
			}
		},
		{
			"doubleSided":true,
			"emissiveFactor":[
				1,
				1,
				1
			],
			"emissiveTexture":{
				"index":4
			},
			"name":"MaterialFBXASC032FBXASC0352142146802",
			"pbrMetallicRoughness":{
				"baseColorFactor":[
					0,
					0,
					0,
					1
				],
				"metallicFactor":0
			}
		}
	],
	"meshes":[
		{
			"name":"MaterialFBXASC032FBXASC0352142146907",
			"primitives":[
				{
					"attributes":{
						"POSITION":0,
						"NORMAL":1,
						"TEXCOORD_0":2
					},
					"indices":3,
					"material":0
				}
			]
		},
		{
			"name":"MaterialFBXASC032FBXASC03511186.003",
			"primitives":[
				{
					"attributes":{
						"POSITION":4,
						"NORMAL":5,
						"TEXCOORD_0":6
					},
					"indices":7,
					"material":1
				}
			]
		},
		{
			"name":"MaterialFBXASC032FBXASC03511186.004",
			"primitives":[
				{
					"attributes":{
						"POSITION":8,
						"NORMAL":9,
						"TEXCOORD_0":10
					},
					"indices":11,
					"material":1
				}
			]
		},
		{
			"name":"MaterialFBXASC032FBXASC03511186.001",
			"primitives":[
				{
					"attributes":{
						"POSITION":12,
						"NORMAL":13,
						"TEXCOORD_0":14
					},
					"indices":15,
					"material":1
				}
			]
		},
		{
			"name":"MaterialFBXASC032FBXASC03511186.002",
			"primitives":[
				{
					"attributes":{
						"POSITION":16,
						"NORMAL":17,
						"TEXCOORD_0":18
					},
					"indices":19,
					"material":1
				}
			]
		},
		{
			"name":"MaterialFBXASC032FBXASC0352142146802",
			"primitives":[
				{
					"attributes":{
						"POSITION":20,
						"NORMAL":21,
						"TEXCOORD_0":22
					},
					"indices":23,
					"material":2
				}
			]
		}
	],
	"textures":[
		{
			"sampler":0,
			"source":0
		},
		{
			"sampler":0,
			"source":1
		},
		{
			"sampler":0,
			"source":2
		},
		{
			"sampler":0,
			"source":3
		},
		{
			"sampler":0,
			"source":4
		}
	],
	"images":[
		{
			"mimeType":"image/png",
			"name":"MaterialFBXASC032FBXASC0352142146907_specularf0.png",
			"uri":"textures/MaterialFBXASC032FBXASC0352142146907_specularf0.png"
		},
		{
			"mimeType":"image/jpeg",
			"name":"MaterialFBXASC032FBXASC0352142146907_baseColor.jpeg",
			"uri":"textures/MaterialFBXASC032FBXASC0352142146907_baseColor.jpeg"
		},
		{
			"mimeType":"image/png",
			"name":"MaterialFBXASC032FBXASC0352142146907_metallicRoughness.png",
			"uri":"textures/MaterialFBXASC032FBXASC0352142146907_metallicRoughness.png"
		},
		{
			"mimeType":"image/jpeg",
			"name":"MaterialFBXASC032FBXASC03511186_emissive.jpeg",
			"uri":"textures/MaterialFBXASC032FBXASC03511186_emissive.jpeg"
		},
		{
			"mimeType":"image/jpeg",
			"name":"MaterialFBXASC032FBXASC0352142146802_emissive.jpeg",
			"uri":"textures/MaterialFBXASC032FBXASC0352142146802_emissive.jpeg"
		}
	],
	"accessors":[
		{
			"bufferView":0,
			"componentType":5126,
			"count":4241,
			"max":[
				29.83955955505371,
				25.117462158203125,
				30.88532257080078
			],
			"min":[
				-29.83956527709961,
				-25.117475509643555,
				-30.885324478149414
			],
			"type":"VEC3"
		},
		{
			"bufferView":1,
			"componentType":5126,
			"count":4241,
			"type":"VEC3"
		},
		{
			"bufferView":2,
			"componentType":5126,
			"count":4241,
			"type":"VEC2"
		},
		{
			"bufferView":3,
			"componentType":5123,
			"count":7410,
			"type":"SCALAR"
		},
		{
			"bufferView":4,
			"componentType":5126,
			"count":85,
			"max":[
				-9.803359985351562,
				18.342374801635742,
				27.832500457763672
			],
			"min":[
				-28.05532455444336,
				8.517056465148926,
				11.332014083862305
			],
			"type":"VEC3"
		},
		{
			"bufferView":5,
			"componentType":5126,
			"count":85,
			"type":"VEC3"
		},
		{
			"bufferView":6,
			"componentType":5126,
			"count":85,
			"type":"VEC2"
		},
		{
			"bufferView":7,
			"componentType":5123,
			"count":87,
			"type":"SCALAR"
		},
		{
			"bufferView":8,
			"componentType":5126,
			"count":99,
			"max":[
				28.056848526000977,
				18.318330764770508,
				27.83177375793457
			],
			"min":[
				9.807656288146973,
				8.453646659851074,
				11.330118179321289
			],
			"type":"VEC3"
		},
		{
			"bufferView":9,
			"componentType":5126,
			"count":99,
			"type":"VEC3"
		},
		{
			"bufferView":10,
			"componentType":5126,
			"count":99,
			"type":"VEC2"
		},
		{
			"bufferView":11,
			"componentType":5123,
			"count":99,
			"type":"SCALAR"
		},
		{
			"bufferView":12,
			"componentType":5126,
			"count":11,
			"max":[
				-6.308053970336914,
				9.230586051940918,
				3.254586935043335
			],
			"min":[
				-25.72828483581543,
				-24.196136474609375,
				-3.8575990200042725
			],
			"type":"VEC3"
		},
		{
			"bufferView":13,
			"componentType":5126,
			"count":11,
			"type":"VEC3"
		},
		{
			"bufferView":14,
			"componentType":5126,
			"count":11,
			"type":"VEC2"
		},
		{
			"bufferView":15,
			"componentType":5123,
			"count":36,
			"type":"SCALAR"
		},
		{
			"bufferView":16,
			"componentType":5126,
			"count":23,
			"max":[
				5.3550519943237305,
				22.168365478515625,
				5.928152084350586
			],
			"min":[
				-5.405032157897949,
				-17.17584991455078,
				-4.10859489440918
			],
			"type":"VEC3"
		},
		{
			"bufferView":17,
			"componentType":5126,
			"count":23,
			"type":"VEC3"
		},
		{
			"bufferView":18,
			"componentType":5126,
			"count":23,
			"type":"VEC2"
		},
		{
			"bufferView":19,
			"componentType":5123,
			"count":84,
			"type":"SCALAR"
		},
		{
			"bufferView":20,
			"componentType":5126,
			"count":11,
			"max":[
				25.63175392150879,
				9.230586051940918,
				3.2545840740203857
			],
			"min":[
				6.211525917053223,
				-24.196134567260742,
				-3.857595920562744
			],
			"type":"VEC3"
		},
		{
			"bufferView":21,
			"componentType":5126,
			"count":11,
			"type":"VEC3"
		},
		{
			"bufferView":22,
			"componentType":5126,
			"count":11,
			"type":"VEC2"
		},
		{
			"bufferView":23,
			"componentType":5123,
			"count":36,
			"type":"SCALAR"
		}
	],
	"bufferViews":[
		{
			"buffer":0,
			"byteLength":50892,
			"byteOffset":0,
			"target":34962
		},
		{
			"buffer":0,
			"byteLength":50892,
			"byteOffset":50892,
			"target":34962
		},
		{
			"buffer":0,
			"byteLength":33928,
			"byteOffset":101784,
			"target":34962
		},
		{
			"buffer":0,
			"byteLength":14820,
			"byteOffset":135712,
			"target":34963
		},
		{
			"buffer":0,
			"byteLength":1020,
			"byteOffset":150532,
			"target":34962
		},
		{
			"buffer":0,
			"byteLength":1020,
			"byteOffset":151552,
			"target":34962
		},
		{
			"buffer":0,
			"byteLength":680,
			"byteOffset":152572,
			"target":34962
		},
		{
			"buffer":0,
			"byteLength":174,
			"byteOffset":153252,
			"target":34963
		},
		{
			"buffer":0,
			"byteLength":1188,
			"byteOffset":153428,
			"target":34962
		},
		{
			"buffer":0,
			"byteLength":1188,
			"byteOffset":154616,
			"target":34962
		},
		{
			"buffer":0,
			"byteLength":792,
			"byteOffset":155804,
			"target":34962
		},
		{
			"buffer":0,
			"byteLength":198,
			"byteOffset":156596,
			"target":34963
		},
		{
			"buffer":0,
			"byteLength":132,
			"byteOffset":156796,
			"target":34962
		},
		{
			"buffer":0,
			"byteLength":132,
			"byteOffset":156928,
			"target":34962
		},
		{
			"buffer":0,
			"byteLength":88,
			"byteOffset":157060,
			"target":34962
		},
		{
			"buffer":0,
			"byteLength":72,
			"byteOffset":157148,
			"target":34963
		},
		{
			"buffer":0,
			"byteLength":276,
			"byteOffset":157220,
			"target":34962
		},
		{
			"buffer":0,
			"byteLength":276,
			"byteOffset":157496,
			"target":34962
		},
		{
			"buffer":0,
			"byteLength":184,
			"byteOffset":157772,
			"target":34962
		},
		{
			"buffer":0,
			"byteLength":168,
			"byteOffset":157956,
			"target":34963
		},
		{
			"buffer":0,
			"byteLength":132,
			"byteOffset":158124,
			"target":34962
		},
		{
			"buffer":0,
			"byteLength":132,
			"byteOffset":158256,
			"target":34962
		},
		{
			"buffer":0,
			"byteLength":88,
			"byteOffset":158388,
			"target":34962
		},
		{
			"buffer":0,
			"byteLength":72,
			"byteOffset":158476,
			"target":34963
		}
	],
	"samplers":[
		{
			"magFilter":9729,
			"minFilter":9987
		}
	],
	"buffers":[
		{
			"byteLength":158548,
			"uri":"console.bin"
		}
	]
}
