{
  "accessors": [
    {
      "bufferView": 2,
      "componentType": 5126,
      "count": 13749,
      "max": [
        3.1519393920898438,
        1.0,
        1.0
      ],
      "min": [
        0.006656743586063385,
        -1.0,
        -2.914638042449951
      ],
      "type": "VEC3"
    },
    {
      "bufferView": 2,
      "byteOffset": 164988,
      "componentType": 5126,
      "count": 13749,
      "max": [
        1.0,
        1.0,
        1.0
      ],
      "min": [
        -1.0,
        -1.0,
        -1.0
      ],
      "type": "VEC3"
    },
    {
      "bufferView": 1,
      "componentType": 5126,
      "count": 13749,
      "max": [
        1.0,
        1.5098270177841187
      ],
      "min": [
        0.0,
        -0.09548003226518631
      ],
      "type": "VEC2"
    },
    {
      "bufferView": 0,
      "componentType": 5125,
      "count": 44262,
      "type": "SCALAR"
    },
    {
      "bufferView": 2,
      "byteOffset": 329976,
      "componentType": 5126,
      "count": 258,
      "max": [
        2.9362995624542236,
        0.7850910425186157,
        -0.4437870979309082
      ],
      "min": [
        1.3270491361618042,
        -0.7841840386390686,
        -2.702510118484497
      ],
      "type": "VEC3"
    },
    {
      "bufferView": 2,
      "byteOffset": 333072,
      "componentType": 5126,
      "count": 258,
      "max": [
        0.998713493347168,
        0.7066529393196106,
        0.9173991680145264
      ],
      "min": [
        -0.7211735248565674,
        -0.7065438032150269,
        -0.0623624250292778
      ],
      "type": "VEC3"
    },
    {
      "bufferView": 1,
      "byteOffset": 109992,
      "componentType": 5126,
      "count": 258,
      "max": [
        0.8920088410377502,
        1.5095181465148926
      ],
      "min": [
        0.10585597157478333,
        0.3796164393424988
      ],
      "type": "VEC2"
    },
    {
      "bufferView": 0,
      "byteOffset": 177048,
      "componentType": 5125,
      "count": 729,
      "type": "SCALAR"
    },
    {
      "bufferView": 2,
      "byteOffset": 336168,
      "componentType": 5126,
      "count": 392,
      "max": [
        2.7048728466033936,
        0.36292707920074463,
        -0.3605862855911255
      ],
      "min": [
        1.7206194400787354,
        -0.32780367136001587,
        -2.17568039894104
      ],
      "type": "VEC3"
    },
    {
      "bufferView": 2,
      "byteOffset": 340872,
      "componentType": 5126,
      "count": 392,
      "max": [
        1.0,
        1.0,
        1.0
      ],
      "min": [
        -1.0,
        -1.0,
        -1.0
      ],
      "type": "VEC3"
    },
    {
      "bufferView": 1,
      "byteOffset": 112056,
      "componentType": 5126,
      "count": 392,
      "max": [
        0.9452729225158691,
        0.9996191263198853
      ],
      "min": [
        0.0,
        0.0
      ],
      "type": "VEC2"
    },
    {
      "bufferView": 0,
      "byteOffset": 179964,
      "componentType": 5125,
      "count": 1044,
      "type": "SCALAR"
    },
    {
      "bufferView": 2,
      "byteOffset": 345576,
      "componentType": 5126,
      "count": 240,
      "max": [
        2.6562728881835938,
        0.2580872178077698,
        -1.2400269508361816
      ],
      "min": [
        1.7692193984985352,
        -0.2229638248682022,
        -2.1270804405212402
      ],
      "type": "VEC3"
    },
    {
      "bufferView": 2,
      "byteOffset": 348456,
      "componentType": 5126,
      "count": 240,
      "max": [
        0.8382151126861572,
        0.9979324340820313,
        0.8459834456443787
      ],
      "min": [
        -0.8382169604301453,
        -0.9979324340820313,
        -0.845982551574707
      ],
      "type": "VEC3"
    },
    {
      "bufferView": 1,
      "byteOffset": 115192,
      "componentType": 5126,
      "count": 240,
      "max": [
        0.9999999403953552,
        0.9766117930412292
      ],
      "min": [
        0.0,
        0.0
      ],
      "type": "VEC2"
    },
    {
      "bufferView": 0,
      "byteOffset": 184140,
      "componentType": 5125,
      "count": 1044,
      "type": "SCALAR"
    }
  ],
  "asset": {
    "extras": {
      "author": "5CNG5 (https://sketchfab.com/5CNG5)",
      "license": "CC-BY-4.0 (http://creativecommons.org/licenses/by/4.0/)",
      "source": "https://sketchfab.com/3d-models/alarm-light-0e009c47066d4ab4b4329fdd4820f141",
      "title": "Alarm Light"
    },
    "generator": "Sketchfab-15.49.0",
    "version": "2.0"
  },
  "bufferViews": [
    {
      "buffer": 0,
      "byteLength": 188316,
      "name": "floatBufferViews",
      "target": 34963
    },
    {
      "buffer": 0,
      "byteLength": 117112,
      "byteOffset": 188316,
      "byteStride": 8,
      "name": "floatBufferViews",
      "target": 34962
    },
    {
      "buffer": 0,
      "byteLength": 351336,
      "byteOffset": 305428,
      "byteStride": 12,
      "name": "floatBufferViews",
      "target": 34962
    }
  ],
  "buffers": [
    {
      "byteLength": 656764,
      "uri": "scene.bin"
    }
  ],
  "extensionsUsed": [
    "KHR_materials_specular",
    "KHR_materials_emissive_strength"
  ],
  "materials": [
    {
      "doubleSided": true,
      "extensions": {
        "KHR_materials_specular": {
          "specularColorFactor": [
            1.0,
            1.0,
            1.0
          ],
          "specularFactor": 0.9956699255342255
        }
      },
      "name": "Metal.001",
      "pbrMetallicRoughness": {
        "baseColorFactor": [
          0.20358339911978232,
          0.09647723713119542,
          0.06314677547720698,
          1.0
        ],
        "roughnessFactor": 0.0
      }
    },
    {
      "alphaMode": "BLEND",
      "doubleSided": true,
      "name": "Geam",
      "pbrMetallicRoughness": {
        "baseColorFactor": [
          0.8021500132830605,
          0.0001238683834837146,
          0.0001238683834837146,
          0.625216332438023
        ],
        "metallicFactor": 0.0,
        "roughnessFactor": 0.8040408205773457
      }
    },
    {
      "doubleSided": true,
      "name": "Metal",
      "pbrMetallicRoughness": {
        "baseColorFactor": [
          0.1375501896973735,
          0.8199031397311036,
          0.025931191312419104,
          1.0
        ],
        "roughnessFactor": 0.0
      }
    },
    {
      "doubleSided": true,
      "extensions": {
        "KHR_materials_emissive_strength": {
          "emissiveStrength": 9.106477894137855
        }
      },
      "name": "Lumina",
      "pbrMetallicRoughness": {
        "baseColorFactor": [
          0.8838329541721293,
          0.00045249601422421906,
          0.00045249601422421906,
          1.0
        ],
        "metallicFactor": 0.0,
        "roughnessFactor": 0.9703830087626255
      }
    }
  ],
  "meshes": [
    {
      "name": "Bec-Alerta-Rosu_Metal.001_0",
      "primitives": [
        {
          "attributes": {
            "NORMAL": 1,
            "POSITION": 0,
            "TEXCOORD_0": 2
          },
          "indices": 3,
          "material": 0,
          "mode": 4
        }
      ]
    },
    {
      "name": "Bec-Alerta-Rosu_Geam_0",
      "primitives": [
        {
          "attributes": {
            "NORMAL": 5,
            "POSITION": 4,
            "TEXCOORD_0": 6
          },
          "indices": 7,
          "material": 1,
          "mode": 4
        }
      ]
    },
    {
      "name": "Bec-Alerta-Rosu_Metal_0",
      "primitives": [
        {
          "attributes": {
            "NORMAL": 9,
            "POSITION": 8,
            "TEXCOORD_0": 10
          },
          "indices": 11,
          "material": 2,
          "mode": 4
        }
      ]
    },
    {
      "name": "Bec-Alerta-Rosu_Lumina_0",
      "primitives": [
        {
          "attributes": {
            "NORMAL": 13,
            "POSITION": 12,
            "TEXCOORD_0": 14
          },
          "indices": 15,
          "material": 3,
          "mode": 4
        }
      ]
    }
  ],
  "nodes": [
    {
      "children": [
        1
      ],
      "matrix": [
        3.099116086959839,
        0.0,
        0.0,
        0.0,
        0.0,
        6.881420071458064e-16,
        -3.099116086959839,
        0.0,
        0.0,
        3.099116086959839,
        6.881420071458064e-16,
        0.0,
        0.0,
        0.0,
        0.0,
        1.0
      ],
      "name": "Sketchfab_model"
    },
    {
      "children": [
        2
      ],
      "matrix": [
        0.009999999776482582,
        0.0,
        0.0,
        0.0,
        0.0,
        0.0,
        0.009999999776482582,
        0.0,
        0.0,
        -0.009999999776482582,
        0.0,
        0.0,
        0.0,
        0.0,
        0.0,
        1.0
      ],
      "name": "7d1bf0332ae443b699542c9798598de2.fbx"
    },
    {
      "children": [
        3
      ],
      "name": "RootNode"
    },
    {
      "children": [
        4,
        5,
        6,
        7
      ],
      "matrix": [
        8.740821838378906,
        0.0,
        0.0,
        0.0,
        0.0,
        -1.4240606323516482e-06,
        -8.74082183837879,
        0.0,
        0.0,
        8.74082183837879,
        -1.4240606323516482e-06,
        0.0,
        4.6566128730773926e-08,
        0.0,
        0.0,
        1.0
      ],
      "name": "Bec-Alerta-Rosu"
    },
    {
      "mesh": 0,
      "name": "Bec-Alerta-Rosu_Metal.001_0"
    },
    {
      "mesh": 1,
      "name": "Bec-Alerta-Rosu_Geam_0"
    },
    {
      "mesh": 2,
      "name": "Bec-Alerta-Rosu_Metal_0"
    },
    {
      "mesh": 3,
      "name": "Bec-Alerta-Rosu_Lumina_0"
    }
  ],
  "scene": 0,
  "scenes": [
    {
      "name": "Sketchfab_Scene",
      "nodes": [
        0
      ]
    }
  ]
}
